# xmcd
#
# Track frame offsets:
#	150
#	12111
#	26512
#	40098
#	56742
#	77016
#	92685
#	119715
#	137563
#
# Disc length: 2203 seconds
#
# Revision: 1
# Processed by: cddbd v1.5.2PL0 Copyright (c) Steve Scherf et al.
# Submitted via: audiograbber 1.83.01
#
DISCID=6c089909
DTITLE=the blues band - bye bye blues (live) - xxx cd2
DYEAR=2012
DGENRE=Blues
TTITLE0=find yourself another fool
TTITLE1=big fine girl
TTITLE2=someday baby
TTITLE3=rolling log
TTITLE4=green stuff
TTITLE5=boom boom (out go the lights)
TTITLE6=last night (with mark feltham)
TTITLE7=baby what you want me to do (with jo-anne kelly)
TTITLE8=spoonful (alexis korner) (1982)
EXTD=
EXTT0=
EXTT1=
EXTT2=
EXTT3=
EXTT4=
EXTT5=
EXTT6=
EXTT7=
EXTT8=
PLAYORDER=
